<svg version="1.1" id="Layer_1" xmlns="http://www.w3.org/2000/svg" xmlns:xlink="http://www.w3.org/1999/xlink" x="0px" y="0px" width="100%" viewBox="0 0 1000 1000" enable-background="new 0 0 1000 1000" xml:space="preserve">

<path fill="#694823" opacity="1.000000" stroke="none" d="
M546.000000,941.000000 
	C433.169983,941.000000 320.839935,941.000427 208.509918,940.999207 
	C201.006119,940.999146 201.001740,940.993591 201.000885,933.436279 
	C200.998413,911.436951 201.004486,889.437561 200.996674,867.438232 
	C200.994385,861.017578 200.978210,861.005920 194.364487,861.002563 
	C178.198303,860.994263 162.031265,860.910156 145.866562,861.064087 
	C142.246521,861.098511 140.493073,860.106812 140.981033,856.289124 
	C141.127747,855.141418 141.000153,853.958801 141.000153,852.792175 
	C141.000000,591.633179 140.996429,330.474243 141.014664,69.315262 
	C141.015305,60.003670 139.976837,61.015324 149.258301,61.014454 
	C350.585724,60.995522 551.913147,60.996819 753.240540,61.011127 
	C761.838013,61.011738 760.964233,60.192581 760.988098,68.814156 
	C761.030518,84.146927 761.240051,99.485695 760.868774,114.809578 
	C760.741089,120.076706 762.510681,121.156609 767.387573,121.104118 
	C789.551025,120.865623 811.718506,120.997543 833.884521,121.001549 
	C840.987732,121.002831 840.998169,121.010353 840.998352,127.958168 
	C841.000732,225.121979 841.000000,322.285767 841.000000,419.449585 
	C841.000061,590.777893 841.000244,762.106140 840.999207,933.434448 
	C840.999207,940.993591 840.994019,940.999084 833.491943,940.999207 
	C737.827942,941.000488 642.164001,941.000000 546.000000,941.000000 
M201.918060,840.937378 
	C208.223816,840.960754 214.529572,840.984192 220.970688,841.935303 
	C220.970688,868.193604 220.970688,894.451904 220.970688,920.586182 
	C421.408569,920.586182 621.122864,920.586182 820.697510,920.586182 
	C820.697510,660.576294 820.697510,400.980286 820.697510,140.835327 
	C793.933960,140.835327 767.470764,140.835327 741.005005,139.920380 
	C740.950256,133.609665 740.895508,127.298958 740.971680,120.060493 
	C740.971680,107.133942 740.971680,94.207397 740.971680,81.413910 
	C547.256165,81.413910 354.209534,81.413910 161.300690,81.413910 
	C161.300690,334.755981 161.300690,587.684021 161.300690,840.840759 
	C174.728836,840.840759 187.858536,840.840759 201.918060,840.937378 
z" data-index="1" style="opacity: 1;"></path>
<path fill="#E9D7C0" opacity="1.000000" stroke="none" d="
M741.007568,140.835327 
	C767.470764,140.835327 793.933960,140.835327 820.697510,140.835327 
	C820.697510,400.980286 820.697510,660.576294 820.697510,920.586182 
	C621.122864,920.586182 421.408569,920.586182 220.970688,920.586182 
	C220.970688,894.451904 220.970688,868.193604 220.962738,841.007080 
	C220.969864,837.579834 220.998108,835.080811 220.998138,832.581726 
	C221.000153,604.636719 221.000000,376.691711 221.000000,148.746704 
	C221.000000,146.315338 221.000000,143.883972 221.000000,141.000000 
	C224.038467,141.000000 226.338974,141.000000 228.639465,141.000000 
	C396.932190,141.000000 565.224915,141.000717 733.517639,140.993164 
	C736.014282,140.993057 738.510925,140.890213 741.007568,140.835327 
M623.927307,700.953796 
	C628.951294,700.913696 633.975342,700.873535 639.818481,700.842590 
	C639.913513,697.544373 640.008606,694.246216 640.087097,690.170227 
	C640.058838,687.495117 640.030579,684.819946 640.483765,681.873413 
	C640.703796,681.582397 640.923828,681.291321 642.056274,681.000000 
	C648.245605,681.000000 654.434998,681.000000 661.061584,681.000000 
	C661.061584,673.797302 661.061584,667.394958 660.993164,660.993164 
	C660.993164,660.993164 660.992615,661.061584 661.929565,661.017029 
	C668.144165,661.017029 674.358765,661.017029 681.061584,661.017029 
	C681.061584,653.828125 681.061584,647.410400 680.993164,640.993164 
	C680.993164,640.993164 680.992615,641.061584 681.929565,641.017029 
	C688.144165,641.017029 694.358765,641.017029 701.061584,641.017029 
	C701.061584,633.828125 701.061584,627.410400 700.993164,620.993164 
	C700.993164,620.993164 700.992615,621.061584 701.929565,621.017029 
	C708.144165,621.017029 714.358765,621.017029 721.061584,621.017029 
	C721.061584,613.828125 721.061584,607.410400 720.993164,600.993164 
	C720.993164,600.993164 720.992615,601.061584 721.929565,601.017029 
	C728.144165,601.017029 734.358765,601.017029 741.061584,601.017029 
	C741.061584,593.828125 741.061584,587.410400 740.993164,580.993164 
	C740.993164,580.993164 740.992615,581.061584 741.929565,581.017029 
	C748.157471,581.017029 754.385376,581.017029 761.061584,581.017029 
	C761.061584,567.135559 761.061584,554.064087 760.993164,540.993164 
	C760.993164,540.993164 760.992615,541.061584 761.929565,541.017029 
	C768.157471,541.017029 774.385376,541.017029 781.061584,541.017029 
	C781.061584,527.135559 781.061584,514.064087 780.993225,500.993225 
	C780.993225,500.993225 780.992615,501.061615 781.929565,501.017029 
	C788.179810,501.017029 794.430054,501.017029 800.651001,501.017029 
	C800.651001,460.597931 800.651001,421.052399 800.651001,380.950806 
	C794.073425,380.950806 787.825989,380.950806 780.871643,380.950806 
	C780.871643,367.382111 780.871643,354.352448 780.871643,340.792419 
	C773.907410,340.792419 767.664673,340.792419 760.883179,340.792419 
	C760.883179,334.000366 760.883179,327.756195 760.883179,320.938385 
	C747.218079,320.938385 734.105347,320.938385 720.993225,321.006775 
	C720.993225,321.006775 721.061584,321.007416 721.017029,320.070435 
	C721.017029,313.820953 721.017029,307.571503 721.017029,301.341248 
	C680.604614,301.341248 641.063599,301.341248 600.967529,301.341248 
	C600.967529,307.910645 600.967529,314.157532 600.967529,321.116150 
	C594.064514,321.116150 587.693237,321.116150 580.800232,321.116150 
	C580.800232,328.084961 580.800232,334.326965 580.800232,341.106812 
	C574.010864,341.106812 567.766418,341.106812 560.938416,341.106812 
	C560.938416,348.103851 560.938416,354.555634 561.006775,361.006775 
	C561.006775,361.006775 561.007385,360.938385 560.070435,360.982971 
	C553.855835,360.982971 547.641235,360.982971 540.938416,360.982971 
	C540.938416,368.170410 540.938416,374.588928 541.006775,381.006775 
	C541.006775,381.006775 541.007385,380.938385 540.070007,380.982971 
	C527.044189,380.968109 514.018372,380.953247 500.993164,381.006836 
	C500.993164,381.006836 501.061615,381.007416 501.017029,380.070404 
	C501.017029,373.855804 501.017029,367.641205 501.017029,360.938385 
	C493.828125,360.938385 487.410339,360.938385 480.993164,361.006836 
	C480.993164,361.006836 481.061615,361.007416 481.017029,360.070404 
	C481.017029,353.820892 481.017029,347.571381 481.017029,340.796631 
	C473.911255,340.796631 467.669220,340.796631 460.889557,340.796631 
	C460.889557,334.006927 460.889557,327.762939 460.889557,320.805908 
	C453.984741,320.805908 447.612000,320.805908 440.722229,320.805908 
	C440.722229,313.832642 440.722229,307.589294 440.722229,301.331909 
	C400.623322,301.331909 361.082397,301.331909 320.938385,301.331909 
	C320.938385,308.106354 320.938385,314.556885 321.006836,321.006836 
	C321.006836,321.006836 321.007416,320.938385 320.070007,320.982971 
	C307.163483,320.982971 294.256958,320.982971 280.806396,320.982971 
	C280.806396,328.077393 280.806396,334.322418 280.806396,341.102783 
	C274.018127,341.102783 267.771912,341.102783 260.818115,341.102783 
	C260.818115,354.672852 260.818115,367.703796 260.818115,381.261169 
	C253.850739,381.261169 247.606964,381.261169 241.330811,381.261169 
	C241.330811,421.365509 241.330811,460.910858 241.330811,501.061615 
	C248.104858,501.061615 254.556137,501.061615 261.006836,500.993164 
	C261.006836,500.993164 260.938385,500.992584 260.982971,501.929993 
	C260.982971,514.794800 260.982971,527.659668 260.982971,541.061584 
	C268.146149,541.061584 274.576782,541.061584 281.006775,540.993225 
	C281.006775,540.993225 280.938385,540.992615 280.982971,541.929993 
	C280.982971,554.794800 280.982971,567.659668 280.982971,581.061584 
	C288.146149,581.061584 294.576782,581.061584 301.006775,580.993225 
	C301.006775,580.993225 300.938385,580.992615 300.982971,581.929565 
	C300.982971,588.144165 300.982971,594.358765 300.982971,601.061584 
	C308.170471,601.061584 314.588928,601.061584 321.006775,600.993225 
	C321.006775,600.993225 320.938385,600.992615 320.982971,601.929565 
	C320.982971,608.144165 320.982971,614.358765 320.982971,621.061584 
	C328.170471,621.061584 334.588928,621.061584 341.006775,620.993225 
	C341.006775,620.993225 340.938385,620.992615 340.982971,621.929565 
	C340.982971,628.144165 340.982971,634.358765 340.982971,641.061584 
	C348.170471,641.061584 354.588928,641.061584 361.006775,640.993225 
	C361.006775,640.993225 360.938385,640.992615 360.982971,641.929565 
	C360.982971,648.144165 360.982971,654.358765 360.982971,661.061584 
	C368.170471,661.061584 374.588928,661.061584 381.006775,660.993225 
	C381.006775,660.993225 380.938385,660.992615 380.982971,661.929565 
	C380.982971,668.144165 380.982971,674.358765 380.982971,681.061584 
	C388.170471,681.061584 394.588928,681.061584 401.006775,680.993225 
	C401.006775,680.993225 400.938385,680.992615 400.982971,681.929565 
	C400.982971,688.144165 400.982971,694.358765 400.982971,701.061584 
	C408.170471,701.061584 414.588928,701.061584 421.006775,700.993225 
	C421.006775,700.993225 420.938385,700.992615 420.982971,701.929565 
	C420.982971,708.144165 420.982971,714.358765 420.982971,721.061584 
	C428.170471,721.061584 434.588928,721.061584 441.006775,720.993225 
	C441.006775,720.993225 440.938385,720.992615 440.982971,721.929565 
	C440.982971,728.178528 440.982971,734.427429 440.982971,741.200989 
	C448.086487,741.200989 454.327942,741.200989 461.106445,741.200989 
	C461.106445,747.988953 461.106445,754.232971 461.106445,761.188477 
	C468.011841,761.188477 474.386108,761.188477 481.270508,761.188477 
	C481.270508,768.159973 481.270508,774.402649 481.270508,781.175964 
	C488.060669,781.175964 494.301849,781.175964 501.081512,781.175964 
	C501.081512,787.960938 501.081512,794.206726 501.081512,800.560425 
	C514.653931,800.560425 527.665833,800.560425 541.228455,800.560425 
	C541.228455,793.884949 541.228455,787.641785 541.228455,780.866089 
	C548.017883,780.866089 554.260254,780.866089 561.039490,780.866089 
	C561.039490,774.082825 561.039490,767.836853 561.039490,760.878418 
	C567.941223,760.878418 574.312439,760.878418 581.203735,760.878418 
	C581.203735,753.910645 581.203735,747.669189 581.203735,740.890869 
	C587.992065,740.890869 594.235657,740.890869 601.061584,740.890869 
	C601.061584,733.895020 601.061584,727.443848 600.993164,720.993164 
	C600.993164,720.993164 600.992615,721.061584 601.929565,721.017029 
	C608.144165,721.017029 614.358765,721.017029 621.061584,721.017029 
	C621.061584,713.828125 621.061584,707.410400 620.993103,700.993347 
	C620.993103,700.993347 620.992615,701.061768 621.664795,701.005310 
	C622.109985,700.947998 622.555237,700.890686 623.927307,700.953796 
z" data-index="2" style="opacity: 1;"></path>
<path fill="#E9D7C0" opacity="1.000000" stroke="none" d="
M200.988251,840.840759 
	C187.858536,840.840759 174.728836,840.840759 161.300690,840.840759 
	C161.300690,587.684021 161.300690,334.755981 161.300690,81.413910 
	C354.209534,81.413910 547.256165,81.413910 740.971680,81.413910 
	C740.971680,94.207397 740.971680,107.133942 740.449280,120.528061 
	C560.376404,120.995621 380.825928,120.995621 200.988251,120.995621 
	C200.988251,361.569641 200.988251,601.205200 200.988251,840.840759 
z" data-index="3"></path>
<path fill="#598F7D" opacity="1.000000" stroke="none" d="
M201.453156,840.889038 
	C200.988251,601.205200 200.988251,361.569641 200.988251,120.995621 
	C380.825928,120.995621 560.376404,120.995621 740.383789,120.991936 
	C740.895508,127.298958 740.950256,133.609665 741.006287,140.377853 
	C738.510925,140.890213 736.014282,140.993057 733.517639,140.993164 
	C565.224915,141.000717 396.932190,141.000000 228.639465,141.000000 
	C226.338974,141.000000 224.038467,141.000000 221.000000,141.000000 
	C221.000000,143.883972 221.000000,146.315338 221.000000,148.746704 
	C221.000000,376.691711 221.000153,604.636719 220.998138,832.581726 
	C220.998108,835.080811 220.969864,837.579834 220.895050,840.543213 
	C214.529572,840.984192 208.223816,840.960754 201.453156,840.889038 
z" data-index="4"></path>
<path fill="#C98A74" opacity="1.000000" stroke="none" d="
M641.143860,681.000244 
	C640.923828,681.291321 640.703796,681.582397 639.924683,681.842957 
	C638.226440,681.595398 637.087158,681.378296 635.750854,681.212036 
	C635.299316,681.418030 635.168396,681.644592 634.847656,682.108948 
	C630.689819,682.238708 626.845398,682.202026 622.610474,682.238159 
	C621.814392,683.798401 621.107300,685.276184 621.058716,686.775269 
	C620.904541,691.533142 620.996094,696.299011 620.992615,701.061768 
	C620.992615,701.061768 620.993103,700.993347 620.554932,700.995239 
	C615.017090,701.004395 609.916260,701.079163 604.818298,700.991699 
	C602.112305,700.945251 600.949036,702.035645 600.992432,704.776123 
	C601.078186,710.203308 601.001892,715.632935 600.992615,721.061584 
	C600.992615,721.061584 600.993164,720.993164 600.554688,720.995117 
	C588.628479,721.000427 577.139771,721.088013 565.653564,720.954773 
	C562.274963,720.915649 560.747681,721.970093 560.962097,725.519226 
	C561.172485,729.002563 560.772705,732.527405 561.054443,736.000427 
	C561.384705,740.072693 559.611267,741.280518 555.823547,741.046509 
	C552.175171,740.821106 548.498901,741.093323 544.839111,740.991821 
	C542.080627,740.915344 540.927612,742.070557 540.990417,744.833252 
	C541.084961,748.992920 541.264587,753.186768 540.816895,757.301758 
	C540.672607,758.627747 538.689819,760.777771 537.505005,760.807068 
	C526.523621,761.078552 515.530090,761.079285 504.548523,760.811584 
	C503.347443,760.782288 501.364990,758.682739 501.187714,757.351257 
	C500.708313,753.751038 500.787415,750.031128 501.055450,746.388855 
	C501.355957,742.305176 499.920776,740.750916 495.713470,740.912109 
	C491.114685,741.088318 484.538788,742.289734 482.385712,739.872437 
	C479.895569,737.076721 480.989502,730.816040 481.088226,726.071472 
	C481.170288,722.128174 479.795929,720.868408 475.900116,720.933289 
	C464.249115,721.127075 452.592682,720.996521 440.938385,720.992615 
	C440.938385,720.992615 441.006775,720.993225 441.004883,720.554932 
	C440.995667,715.017090 440.920868,709.916260 441.008301,704.818298 
	C441.054718,702.112366 439.964355,700.949036 437.223816,700.992371 
	C431.796722,701.078186 426.367004,701.001953 420.938385,700.992676 
	C420.938385,700.992615 421.006775,700.993225 421.004883,700.554932 
	C420.995667,695.017090 420.920868,689.916260 421.008301,684.818298 
	C421.054718,682.112366 419.964355,680.949158 417.223816,680.992371 
	C411.796722,681.078186 406.367004,681.001892 400.938385,680.992615 
	C400.938385,680.992615 401.006775,680.993225 401.004883,680.554932 
	C400.995667,675.017090 400.920898,669.916260 401.008331,664.818298 
	C401.054718,662.112366 399.964355,660.949097 397.223816,660.992432 
	C391.796722,661.078247 386.367004,661.001953 380.938385,660.992676 
	C380.938385,660.992615 381.006775,660.993225 381.004883,660.554932 
	C380.995667,655.017090 380.920868,649.916260 381.008301,644.818298 
	C381.054718,642.112366 379.964355,640.949158 377.223816,640.992432 
	C371.796722,641.078186 366.367004,641.001892 360.938385,640.992615 
	C360.938385,640.992615 361.006775,640.993225 361.004883,640.554932 
	C360.995667,635.017090 360.920898,629.916260 361.008331,624.818298 
	C361.054749,622.112366 359.964355,620.949097 357.223816,620.992432 
	C351.796722,621.078247 346.367004,621.001892 340.938385,620.992615 
	C340.938385,620.992615 341.006775,620.993225 341.004883,620.554932 
	C340.995667,615.017090 340.920898,609.916260 341.008331,604.818298 
	C341.054718,602.112366 339.964355,600.949097 337.223816,600.992432 
	C331.796722,601.078247 326.367004,601.001892 320.938385,600.992615 
	C320.938385,600.992615 321.006775,600.993225 321.004913,600.554932 
	C320.995697,595.017090 320.920929,589.916260 321.008331,584.818298 
	C321.054718,582.112366 319.964355,580.949097 317.223816,580.992432 
	C311.796722,581.078186 306.367004,581.001892 300.938385,580.992615 
	C300.938385,580.992615 301.006775,580.993225 301.004883,580.554749 
	C301.001587,569.044983 300.833710,557.970032 301.081268,546.904297 
	C301.179291,542.522034 300.046234,540.550659 295.308105,540.919434 
	C290.545135,541.290039 285.730408,540.995544 280.938385,540.992554 
	C280.938385,540.992615 281.006775,540.993225 281.004883,540.554749 
	C281.001587,529.044983 280.833710,517.970032 281.081207,506.904327 
	C281.179230,502.522186 280.046387,500.550598 275.308075,500.919373 
	C270.545135,501.290100 265.730408,500.995575 260.938385,500.992584 
	C260.938385,500.992584 261.006836,500.993164 261.004944,500.554749 
	C261.002014,471.663910 261.000885,443.211548 261.000092,414.759155 
	C260.999695,401.095551 261.000000,401.095520 274.874329,400.999115 
	C275.207092,400.996796 275.544495,400.960297 275.871948,401.001495 
	C279.710358,401.484131 281.163025,399.954315 281.071747,395.962860 
	C280.843536,385.984863 281.161194,375.994263 280.926544,366.016571 
	C280.831909,361.991821 282.330811,360.707794 286.151367,360.952148 
	C289.796448,361.185333 293.471283,360.907990 297.128815,361.008392 
	C299.858215,361.083282 301.089081,359.991547 301.006836,357.202606 
	C300.903870,353.711761 301.278656,350.186737 300.932617,346.727966 
	C300.455505,341.958527 302.522400,340.565826 306.943970,340.944397 
	C310.247009,341.227173 313.599243,340.878754 316.920929,341.017700 
	C319.925568,341.143402 321.093262,339.902496 321.022369,336.910675 
	C320.896301,331.589447 320.999878,326.262787 321.007385,320.938385 
	C321.007416,320.938385 321.006836,321.006836 321.445251,321.004944 
	C353.045074,321.002625 384.206818,321.075378 415.367401,320.917328 
	C419.689728,320.895416 421.518372,322.075897 421.056183,326.549957 
	C420.749603,329.517609 421.199646,332.559296 420.953918,335.538361 
	C420.623901,339.538940 421.922516,341.271118 426.222382,341.088440 
	C430.828430,340.892731 437.398407,339.677765 439.579681,342.094788 
	C442.080200,344.865479 440.990875,351.144165 440.913116,355.889832 
	C440.849335,359.779663 442.113953,361.139557 446.068878,361.070160 
	C457.729889,360.865479 469.396942,361.003510 481.061615,361.007446 
	C481.061615,361.007416 480.993164,361.006836 480.995056,361.445068 
	C481.004333,366.982941 481.079102,372.083710 480.991669,377.181732 
	C480.945251,379.887634 482.035675,381.050934 484.776215,381.007629 
	C490.203308,380.921844 495.632996,380.998108 501.061615,381.007416 
	C501.061615,381.007416 500.993164,381.006836 500.995056,381.445068 
	C501.002747,386.871765 501.099731,391.862457 500.979462,396.847900 
	C500.908997,399.770386 501.945740,401.054291 505.010925,401.024170 
	C515.651978,400.919586 526.295288,400.922913 536.936401,401.023621 
	C539.947815,401.052124 541.091553,399.877533 541.022034,396.900635 
	C540.897888,391.582642 540.999939,386.259430 541.007385,380.938385 
	C541.007385,380.938385 541.006775,381.006775 541.445068,381.004883 
	C546.982910,380.995667 552.083740,380.920868 557.181702,381.008301 
	C559.887634,381.054718 561.050903,379.964355 561.007568,377.223816 
	C560.921814,371.796722 560.998108,366.367004 561.007385,360.938385 
	C561.007385,360.938385 561.006775,361.006775 561.445251,361.004883 
	C573.381775,360.999512 584.880920,360.907623 596.377197,361.046722 
	C599.799744,361.088135 601.270935,359.954651 601.033813,356.442902 
	C600.832275,353.457214 601.259033,350.418793 600.941650,347.453613 
	C600.417847,342.559937 601.982117,340.758759 607.231262,340.872772 
	C620.895996,341.169647 621.100098,340.913849 620.892883,327.100006 
	C620.820740,322.290649 622.246521,320.868439 627.078125,320.899384 
	C658.404907,321.099884 689.733521,321.005310 721.061584,321.007416 
	C721.061584,321.007416 720.993225,321.006775 720.995117,321.445038 
	C721.002869,326.874939 721.101440,331.868835 720.979187,336.857330 
	C720.907227,339.793854 721.965088,341.139984 725.025696,341.019470 
	C728.680298,340.875549 732.363098,341.226349 736.001099,340.943817 
	C740.067749,340.627991 741.281372,342.383118 741.046570,346.171631 
	C740.820618,349.817719 741.092773,353.491791 740.991699,357.149323 
	C740.915833,359.895233 742.045776,361.097076 744.817932,361.006317 
	C747.975708,360.902954 751.139771,360.990875 754.301147,361.001007 
	C760.969238,361.022308 760.981262,361.023712 760.995972,367.458832 
	C761.011230,374.114349 760.999939,380.769928 761.000000,387.425476 
	C761.000061,400.936157 761.000000,400.936157 774.559875,401.000671 
	C780.976746,401.031219 780.995361,401.031189 780.996399,407.717590 
	C781.001221,438.832275 780.994934,469.946930 780.992615,501.061615 
	C780.992615,501.061615 780.993225,500.993225 780.554932,500.995117 
	C775.324646,500.999939 770.523743,501.182251 765.743286,500.948364 
	C762.006897,500.765533 760.897461,502.277618 760.945251,505.865448 
	C761.101562,517.595642 760.996887,529.329285 760.992676,541.061584 
	C760.992615,541.061584 760.993164,540.993164 760.554932,540.995117 
	C755.324646,541.000000 750.523743,541.182434 745.743286,540.948425 
	C742.006714,540.765503 740.897339,542.277893 740.945129,545.865479 
	C741.101318,557.595642 740.996887,569.329285 740.992676,581.061584 
	C740.992615,581.061584 740.993164,580.993164 740.554932,580.995117 
	C735.017090,581.004395 729.916260,581.079224 724.818298,580.991699 
	C722.112305,580.945312 720.949158,582.035645 720.992432,584.776123 
	C721.078186,590.203308 721.001892,595.632935 720.992615,601.061584 
	C720.992615,601.061584 720.993164,600.993164 720.554932,600.995117 
	C715.017090,601.004333 709.916260,601.079163 704.818298,600.991760 
	C702.112305,600.945312 700.949036,602.035645 700.992371,604.776123 
	C701.078186,610.203308 701.001953,615.632935 700.992676,621.061584 
	C700.992615,621.061584 700.993164,620.993164 700.554932,620.995117 
	C695.017090,621.004395 689.916260,621.079163 684.818298,620.991699 
	C682.112305,620.945251 680.949097,622.035645 680.992371,624.776123 
	C681.078186,630.203308 681.001892,635.632935 680.992615,641.061584 
	C680.992615,641.061584 680.993164,640.993164 680.554932,640.995117 
	C675.017090,641.004395 669.916260,641.079224 664.818298,640.991699 
	C662.112305,640.945312 660.949036,642.035645 660.992432,644.776123 
	C661.078247,650.203308 661.001953,655.632935 660.992676,661.061584 
	C660.992615,661.061584 660.993164,660.993164 660.554932,660.995117 
	C655.290466,661.000427 650.458618,661.146545 645.639832,660.958801 
	C642.241089,660.826294 640.795471,661.998169 640.959045,665.530273 
	C641.197571,670.678711 641.098816,675.842834 641.143860,681.000244 
M421.014252,381.912476 
	C421.009521,383.571014 420.968597,385.230377 421.005707,386.887970 
	C421.374817,403.387238 417.991913,400.756836 436.245880,400.984344 
	C436.411560,400.986420 436.577789,400.964569 436.743134,400.970795 
	C439.635529,401.079865 441.023315,399.725281 440.981598,396.795685 
	C440.929688,393.147888 440.861908,389.493439 441.019379,385.851349 
	C441.180695,382.121796 439.405060,380.871643 435.895874,380.975098 
	C430.924438,381.121643 425.945770,381.022736 420.983063,380.088318 
	C420.986938,375.592834 420.832581,371.089935 421.041931,366.604034 
	C421.228363,362.610107 419.832825,360.653412 415.614166,360.970093 
	C412.965302,361.168915 410.267578,360.785339 407.629578,361.045715 
	C402.752563,361.527069 400.409790,359.844452 400.945618,354.636230 
	C401.250671,351.671326 400.920319,348.646240 401.000946,345.651611 
	C401.082916,342.606720 399.939575,340.983826 396.663574,341.004364 
	C386.174622,341.070068 375.684937,341.055695 365.195740,341.016937 
	C362.238525,341.006012 360.970367,342.401428 361.015045,345.292664 
	C361.066498,348.621643 360.810211,351.966217 361.044678,355.278748 
	C361.353821,359.646240 359.540436,361.158234 355.231812,361.063690 
	C345.579529,360.851990 335.917603,361.108215 326.262970,360.957916 
	C322.413910,360.898010 320.768097,362.333923 320.968811,366.225464 
	C321.148590,369.711914 320.935181,373.216888 320.985260,376.712372 
	C321.026733,379.606934 319.753540,381.026947 316.799133,380.981964 
	C313.470184,380.931244 310.126740,381.180664 306.812836,380.956604 
	C302.546722,380.668182 300.825806,382.264954 300.934174,386.676605 
	C301.163055,395.994965 300.815308,405.328125 301.075928,414.644836 
	C301.206207,419.303345 299.787842,421.505035 294.864716,421.048889 
	C291.893707,420.773590 288.872253,421.097778 285.879395,420.989014 
	C282.594238,420.869598 280.970001,422.100464 280.985809,425.608307 
	C281.062286,442.590942 281.050415,459.574219 281.000519,476.557037 
	C280.991089,479.754456 282.420380,481.054443 285.544830,481.001495 
	C290.704834,480.914001 295.867279,480.972992 301.014282,481.912476 
	C301.009521,483.571014 300.968536,485.230377 301.005646,486.887970 
	C301.374756,503.387238 297.991913,500.756836 316.245880,500.984344 
	C316.411560,500.986420 316.577789,500.964569 316.743134,500.970825 
	C319.635529,501.079926 321.023254,499.725281 320.981567,496.795685 
	C320.929657,493.147888 320.861938,489.493439 321.019409,485.851349 
	C321.180695,482.121796 319.405029,480.871613 315.895874,480.975067 
	C310.924438,481.121582 305.945770,481.022736 300.983063,480.088318 
	C300.988953,476.094788 300.986359,472.101227 301.002563,468.107727 
	C301.030914,461.129974 301.117950,461.041107 307.866425,461.002869 
	C310.362335,460.988739 312.873749,460.819550 315.350983,461.034088 
	C319.789703,461.418488 321.335236,459.398529 321.040741,455.164337 
	C320.821960,452.018494 321.109131,448.840637 320.990387,445.683838 
	C320.860779,442.237762 322.453430,440.885193 325.799652,440.985565 
	C329.456512,441.095245 333.120697,440.935242 336.780457,440.983307 
	C339.718231,441.021912 341.019287,439.642029 340.985535,436.735413 
	C340.941071,432.909241 341.059326,429.081116 341.014832,425.254944 
	C340.980957,422.341736 342.298126,420.981659 345.229156,421.015778 
	C349.055328,421.060242 352.883453,420.942017 356.709625,420.986328 
	C359.598694,421.019745 361.028839,419.762054 360.981354,416.806244 
	C360.930542,413.645782 361.210449,410.465363 360.950500,407.326416 
	C360.562012,402.635101 362.271088,400.759460 367.157318,400.917297 
	C376.299622,401.212585 385.467590,400.752869 394.606659,401.094269 
	C399.766357,401.286987 401.529602,399.328522 401.049042,394.408936 
	C400.775391,391.607391 401.128265,388.750153 400.982727,385.929169 
	C400.792542,382.241516 402.475891,380.871094 406.054169,380.972260 
	C411.041687,381.113281 416.036835,380.983887 421.014252,381.912476 
z" data-index="5" style="opacity: 1;"></path>
<path fill="#598F7D" opacity="1.000000" stroke="none" d="
M440.960693,721.461060 
	C452.592682,720.996521 464.249115,721.127075 475.900116,720.933289 
	C479.795929,720.868408 481.170288,722.128174 481.088226,726.071472 
	C480.989502,730.816040 479.895569,737.076721 482.385712,739.872437 
	C484.538788,742.289734 491.114685,741.088318 495.713470,740.912109 
	C499.920776,740.750916 501.355957,742.305176 501.055450,746.388855 
	C500.787415,750.031128 500.708313,753.751038 501.187714,757.351257 
	C501.364990,758.682739 503.347443,760.782288 504.548523,760.811584 
	C515.530090,761.079285 526.523621,761.078552 537.505005,760.807068 
	C538.689819,760.777771 540.672607,758.627747 540.816895,757.301758 
	C541.264587,753.186768 541.084961,748.992920 540.990417,744.833252 
	C540.927612,742.070557 542.080627,740.915344 544.839111,740.991821 
	C548.498901,741.093323 552.175171,740.821106 555.823547,741.046509 
	C559.611267,741.280518 561.384705,740.072693 561.054443,736.000427 
	C560.772705,732.527405 561.172485,729.002563 560.962097,725.519226 
	C560.747681,721.970093 562.274963,720.915649 565.653564,720.954773 
	C577.139771,721.088013 588.628479,721.000427 600.588928,720.994873 
	C601.061584,727.443848 601.061584,733.895020 601.061584,740.890869 
	C594.235657,740.890869 587.992065,740.890869 581.203735,740.890869 
	C581.203735,747.669189 581.203735,753.910645 581.203735,760.878418 
	C574.312439,760.878418 567.941223,760.878418 561.039490,760.878418 
	C561.039490,767.836853 561.039490,774.082825 561.039490,780.866089 
	C554.260254,780.866089 548.017883,780.866089 541.228455,780.866089 
	C541.228455,787.641785 541.228455,793.884949 541.228455,800.560425 
	C527.665833,800.560425 514.653931,800.560425 501.081512,800.560425 
	C501.081512,794.206726 501.081512,787.960938 501.081512,781.175964 
	C494.301849,781.175964 488.060669,781.175964 481.270508,781.175964 
	C481.270508,774.402649 481.270508,768.159973 481.270508,761.188477 
	C474.386108,761.188477 468.011841,761.188477 461.106445,761.188477 
	C461.106445,754.232971 461.106445,747.988953 461.106445,741.200989 
	C454.327942,741.200989 448.086487,741.200989 440.982971,741.200989 
	C440.982971,734.427429 440.982971,728.178528 440.960693,721.461060 
z" data-index="6"></path>
<path fill="#598F7D" opacity="1.000000" stroke="none" d="
M781.461060,501.039307 
	C780.994934,469.946930 781.001221,438.832275 780.996399,407.717590 
	C780.995361,401.031189 780.976746,401.031219 774.559875,401.000671 
	C761.000000,400.936157 761.000061,400.936157 761.000000,387.425476 
	C760.999939,380.769928 761.011230,374.114349 760.995972,367.458832 
	C760.981262,361.023712 760.969238,361.022308 754.301147,361.001007 
	C751.139771,360.990875 747.975708,360.902954 744.817932,361.006317 
	C742.045776,361.097076 740.915833,359.895233 740.991699,357.149323 
	C741.092773,353.491791 740.820618,349.817719 741.046570,346.171631 
	C741.281372,342.383118 740.067749,340.627991 736.001099,340.943817 
	C732.363098,341.226349 728.680298,340.875549 725.025696,341.019470 
	C721.965088,341.139984 720.907227,339.793854 720.979187,336.857330 
	C721.101440,331.868835 721.002869,326.874939 720.994873,321.410828 
	C734.105347,320.938385 747.218079,320.938385 760.883179,320.938385 
	C760.883179,327.756195 760.883179,334.000366 760.883179,340.792419 
	C767.664673,340.792419 773.907410,340.792419 780.871643,340.792419 
	C780.871643,354.352448 780.871643,367.382111 780.871643,380.950806 
	C787.825989,380.950806 794.073425,380.950806 800.651001,380.950806 
	C800.651001,421.052399 800.651001,460.597931 800.651001,501.017029 
	C794.430054,501.017029 788.179810,501.017029 781.461060,501.039307 
z" data-index="7" style="opacity: 1;"></path>
<path fill="#598F7D" opacity="1.000000" stroke="none" d="
M320.538696,320.960693 
	C320.999878,326.262787 320.896301,331.589447 321.022369,336.910675 
	C321.093262,339.902496 319.925568,341.143402 316.920929,341.017700 
	C313.599243,340.878754 310.247009,341.227173 306.943970,340.944397 
	C302.522400,340.565826 300.455505,341.958527 300.932617,346.727966 
	C301.278656,350.186737 300.903870,353.711761 301.006836,357.202606 
	C301.089081,359.991547 299.858215,361.083282 297.128815,361.008392 
	C293.471283,360.907990 289.796448,361.185333 286.151367,360.952148 
	C282.330811,360.707794 280.831909,361.991821 280.926544,366.016571 
	C281.161194,375.994263 280.843536,385.984863 281.071747,395.962860 
	C281.163025,399.954315 279.710358,401.484131 275.871948,401.001495 
	C275.544495,400.960297 275.207092,400.996796 274.874329,400.999115 
	C261.000000,401.095520 260.999695,401.095551 261.000092,414.759155 
	C261.000885,443.211548 261.002014,471.663910 261.005219,500.588959 
	C254.556137,501.061615 248.104858,501.061615 241.330811,501.061615 
	C241.330811,460.910858 241.330811,421.365509 241.330811,381.261169 
	C247.606964,381.261169 253.850739,381.261169 260.818115,381.261169 
	C260.818115,367.703796 260.818115,354.672852 260.818115,341.102783 
	C267.771912,341.102783 274.018127,341.102783 280.806396,341.102783 
	C280.806396,334.322418 280.806396,328.077393 280.806396,320.982971 
	C294.256958,320.982971 307.163483,320.982971 320.538696,320.960693 
z" data-index="8"></path>
<path fill="#598F7D" opacity="1.000000" stroke="none" d="
M481.039307,360.538940 
	C469.396942,361.003510 457.729889,360.865479 446.068878,361.070160 
	C442.113953,361.139557 440.849335,359.779663 440.913116,355.889832 
	C440.990875,351.144165 442.080200,344.865479 439.579681,342.094788 
	C437.398407,339.677765 430.828430,340.892731 426.222382,341.088440 
	C421.922516,341.271118 420.623901,339.538940 420.953918,335.538361 
	C421.199646,332.559296 420.749603,329.517609 421.056183,326.549957 
	C421.518372,322.075897 419.689728,320.895416 415.367401,320.917328 
	C384.206818,321.075378 353.045074,321.002625 321.411041,321.005219 
	C320.938385,314.556885 320.938385,308.106354 320.938385,301.331909 
	C361.082397,301.331909 400.623322,301.331909 440.722229,301.331909 
	C440.722229,307.589294 440.722229,313.832642 440.722229,320.805908 
	C447.612000,320.805908 453.984741,320.805908 460.889557,320.805908 
	C460.889557,327.762939 460.889557,334.006927 460.889557,340.796631 
	C467.669220,340.796631 473.911255,340.796631 481.017029,340.796631 
	C481.017029,347.571381 481.017029,353.820892 481.039307,360.538940 
z" data-index="9"></path>
<path fill="#598F7D" opacity="1.000000" stroke="none" d="
M721.039307,320.538940 
	C689.733521,321.005310 658.404907,321.099884 627.078125,320.899384 
	C622.246521,320.868439 620.820740,322.290649 620.892883,327.100006 
	C621.100098,340.913849 620.895996,341.169647 607.231262,340.872772 
	C601.982117,340.758759 600.417847,342.559937 600.941650,347.453613 
	C601.259033,350.418793 600.832275,353.457214 601.033813,356.442902 
	C601.270935,359.954651 599.799744,361.088135 596.377197,361.046722 
	C584.880920,360.907623 573.381775,360.999512 561.411072,361.005219 
	C560.938416,354.555634 560.938416,348.103851 560.938416,341.106812 
	C567.766418,341.106812 574.010864,341.106812 580.800232,341.106812 
	C580.800232,334.326965 580.800232,328.084961 580.800232,321.116150 
	C587.693237,321.116150 594.064514,321.116150 600.967529,321.116150 
	C600.967529,314.157532 600.967529,307.910645 600.967529,301.341248 
	C641.063599,301.341248 680.604614,301.341248 721.017029,301.341248 
	C721.017029,307.571503 721.017029,313.820953 721.039307,320.538940 
z" data-index="10"></path>
<path fill="#598F7D" opacity="1.000000" stroke="none" d="
M540.538696,380.960693 
	C540.999939,386.259430 540.897888,391.582642 541.022034,396.900635 
	C541.091553,399.877533 539.947815,401.052124 536.936401,401.023621 
	C526.295288,400.922913 515.651978,400.919586 505.010925,401.024170 
	C501.945740,401.054291 500.908997,399.770386 500.979462,396.847900 
	C501.099731,391.862457 501.002747,386.871765 500.994781,381.410828 
	C514.018372,380.953247 527.044189,380.968109 540.538696,380.960693 
z" data-index="11"></path>
<path fill="#598F7D" opacity="1.000000" stroke="none" d="
M260.960693,501.461304 
	C265.730408,500.995575 270.545135,501.290100 275.308075,500.919373 
	C280.046387,500.550598 281.179230,502.522186 281.081207,506.904327 
	C280.833710,517.970032 281.001587,529.044983 281.005219,540.588928 
	C274.576782,541.061584 268.146149,541.061584 260.982971,541.061584 
	C260.982971,527.659668 260.982971,514.794800 260.960693,501.461304 
z" data-index="12"></path>
<path fill="#598F7D" opacity="1.000000" stroke="none" d="
M761.461121,541.039307 
	C760.996887,529.329285 761.101562,517.595642 760.945251,505.865448 
	C760.897461,502.277618 762.006897,500.765533 765.743286,500.948364 
	C770.523743,501.182251 775.324646,500.999939 780.589111,500.994781 
	C781.061584,514.064087 781.061584,527.135559 781.061584,541.017029 
	C774.385376,541.017029 768.157471,541.017029 761.461121,541.039307 
z" data-index="13"></path>
<path fill="#598F7D" opacity="1.000000" stroke="none" d="
M280.960693,541.461304 
	C285.730408,540.995544 290.545135,541.290039 295.308105,540.919434 
	C300.046234,540.550659 301.179291,542.522034 301.081268,546.904297 
	C300.833710,557.970032 301.001587,569.044983 301.005219,580.588928 
	C294.576782,581.061584 288.146149,581.061584 280.982971,581.061584 
	C280.982971,567.659668 280.982971,554.794800 280.960693,541.461304 
z" data-index="14"></path>
<path fill="#598F7D" opacity="1.000000" stroke="none" d="
M741.461121,581.039307 
	C740.996887,569.329285 741.101318,557.595642 740.945129,545.865479 
	C740.897339,542.277893 742.006714,540.765503 745.743286,540.948425 
	C750.523743,541.182434 755.324646,541.000000 760.589111,540.994873 
	C761.061584,554.064087 761.061584,567.135559 761.061584,581.017029 
	C754.385376,581.017029 748.157471,581.017029 741.461121,581.039307 
z" data-index="15"></path>
<path fill="#598F7D" opacity="1.000000" stroke="none" d="
M340.960693,621.461060 
	C346.367004,621.001892 351.796722,621.078247 357.223816,620.992432 
	C359.964355,620.949097 361.054749,622.112366 361.008331,624.818298 
	C360.920898,629.916260 360.995667,635.017090 361.005219,640.589111 
	C354.588928,641.061584 348.170471,641.061584 340.982971,641.061584 
	C340.982971,634.358765 340.982971,628.144165 340.960693,621.461060 
z" data-index="16"></path>
<path fill="#598F7D" opacity="1.000000" stroke="none" d="
M601.461060,721.039307 
	C601.001892,715.632935 601.078186,710.203308 600.992432,704.776123 
	C600.949036,702.035645 602.112305,700.945251 604.818298,700.991699 
	C609.916260,701.079163 615.017090,701.004395 620.589111,700.994873 
	C621.061584,707.410400 621.061584,713.828125 621.061584,721.017029 
	C614.358765,721.017029 608.144165,721.017029 601.461060,721.039307 
z" data-index="17"></path>
<path fill="#598F7D" opacity="1.000000" stroke="none" d="
M420.960693,701.461121 
	C426.367004,701.001953 431.796722,701.078186 437.223816,700.992371 
	C439.964355,700.949036 441.054718,702.112366 441.008301,704.818298 
	C440.920868,709.916260 440.995667,715.017090 441.005219,720.589111 
	C434.588928,721.061584 428.170471,721.061584 420.982971,721.061584 
	C420.982971,714.358765 420.982971,708.144165 420.960693,701.461121 
z" data-index="18"></path>
<path fill="#598F7D" opacity="1.000000" stroke="none" d="
M400.960693,681.461060 
	C406.367004,681.001892 411.796722,681.078186 417.223816,680.992371 
	C419.964355,680.949158 421.054718,682.112366 421.008301,684.818298 
	C420.920868,689.916260 420.995667,695.017090 421.005219,700.589111 
	C414.588928,701.061584 408.170471,701.061584 400.982971,701.061584 
	C400.982971,694.358765 400.982971,688.144165 400.960693,681.461060 
z" data-index="19"></path>
<path fill="#598F7D" opacity="1.000000" stroke="none" d="
M641.600098,681.000122 
	C641.098816,675.842834 641.197571,670.678711 640.959045,665.530273 
	C640.795471,661.998169 642.241089,660.826294 645.639832,660.958801 
	C650.458618,661.146545 655.290466,661.000427 660.589111,660.994873 
	C661.061584,667.394958 661.061584,673.797302 661.061584,681.000000 
	C654.434998,681.000000 648.245605,681.000000 641.600098,681.000122 
z" data-index="20"></path>
<path fill="#598F7D" opacity="1.000000" stroke="none" d="
M380.960693,661.461121 
	C386.367004,661.001953 391.796722,661.078247 397.223816,660.992432 
	C399.964355,660.949097 401.054718,662.112366 401.008331,664.818298 
	C400.920898,669.916260 400.995667,675.017090 401.005219,680.589111 
	C394.588928,681.061584 388.170471,681.061584 380.982971,681.061584 
	C380.982971,674.358765 380.982971,668.144165 380.960693,661.461121 
z" data-index="21"></path>
<path fill="#598F7D" opacity="1.000000" stroke="none" d="
M661.461121,661.039307 
	C661.001953,655.632935 661.078247,650.203308 660.992432,644.776123 
	C660.949036,642.035645 662.112305,640.945312 664.818298,640.991699 
	C669.916260,641.079224 675.017090,641.004395 680.589111,640.994873 
	C681.061584,647.410400 681.061584,653.828125 681.061584,661.017029 
	C674.358765,661.017029 668.144165,661.017029 661.461121,661.039307 
z" data-index="22"></path>
<path fill="#598F7D" opacity="1.000000" stroke="none" d="
M360.960693,641.461060 
	C366.367004,641.001892 371.796722,641.078186 377.223816,640.992432 
	C379.964355,640.949158 381.054718,642.112366 381.008301,644.818298 
	C380.920868,649.916260 380.995667,655.017090 381.005219,660.589111 
	C374.588928,661.061584 368.170471,661.061584 360.982971,661.061584 
	C360.982971,654.358765 360.982971,648.144165 360.960693,641.461060 
z" data-index="23"></path>
<path fill="#598F7D" opacity="1.000000" stroke="none" d="
M681.461060,641.039307 
	C681.001892,635.632935 681.078186,630.203308 680.992371,624.776123 
	C680.949097,622.035645 682.112305,620.945251 684.818298,620.991699 
	C689.916260,621.079163 695.017090,621.004395 700.589111,620.994873 
	C701.061584,627.410400 701.061584,633.828125 701.061584,641.017029 
	C694.358765,641.017029 688.144165,641.017029 681.461060,641.039307 
z" data-index="24"></path>
<path fill="#598F7D" opacity="1.000000" stroke="none" d="
M501.039307,380.538910 
	C495.632996,380.998108 490.203308,380.921844 484.776215,381.007629 
	C482.035675,381.050934 480.945251,379.887634 480.991669,377.181732 
	C481.079102,372.083710 481.004333,366.982941 480.994781,361.410828 
	C487.410339,360.938385 493.828125,360.938385 501.017029,360.938385 
	C501.017029,367.641205 501.017029,373.855804 501.039307,380.538910 
z" data-index="25"></path>
<path fill="#598F7D" opacity="1.000000" stroke="none" d="
M701.461121,621.039307 
	C701.001953,615.632935 701.078186,610.203308 700.992371,604.776123 
	C700.949036,602.035645 702.112305,600.945312 704.818298,600.991760 
	C709.916260,601.079163 715.017090,601.004333 720.589111,600.994812 
	C721.061584,607.410400 721.061584,613.828125 721.061584,621.017029 
	C714.358765,621.017029 708.144165,621.017029 701.461121,621.039307 
z" data-index="26"></path>
<path fill="#598F7D" opacity="1.000000" stroke="none" d="
M320.960693,601.461060 
	C326.367004,601.001892 331.796722,601.078247 337.223816,600.992432 
	C339.964355,600.949097 341.054718,602.112366 341.008331,604.818298 
	C340.920898,609.916260 340.995667,615.017090 341.005219,620.589111 
	C334.588928,621.061584 328.170471,621.061584 320.982971,621.061584 
	C320.982971,614.358765 320.982971,608.144165 320.960693,601.461060 
z" data-index="27"></path>
<path fill="#598F7D" opacity="1.000000" stroke="none" d="
M721.461060,601.039307 
	C721.001892,595.632935 721.078186,590.203308 720.992432,584.776123 
	C720.949158,582.035645 722.112305,580.945312 724.818298,580.991699 
	C729.916260,581.079224 735.017090,581.004395 740.589111,580.994873 
	C741.061584,587.410400 741.061584,593.828125 741.061584,601.017029 
	C734.358765,601.017029 728.144165,601.017029 721.461060,601.039307 
z" data-index="28"></path>
<path fill="#598F7D" opacity="1.000000" stroke="none" d="
M300.960693,581.461060 
	C306.367004,581.001892 311.796722,581.078186 317.223816,580.992432 
	C319.964355,580.949097 321.054718,582.112366 321.008331,584.818298 
	C320.920929,589.916260 320.995697,595.017090 321.005249,600.589111 
	C314.588928,601.061584 308.170471,601.061584 300.982971,601.061584 
	C300.982971,594.358765 300.982971,588.144165 300.960693,581.461060 
z" data-index="29"></path>
<path fill="#598F7D" opacity="1.000000" stroke="none" d="
M560.538940,360.960693 
	C560.998108,366.367004 560.921814,371.796722 561.007568,377.223816 
	C561.050903,379.964355 559.887634,381.054718 557.181702,381.008301 
	C552.083740,380.920868 546.982910,380.995667 541.410889,381.005219 
	C540.938416,374.588928 540.938416,368.170410 540.938416,360.982971 
	C547.641235,360.982971 553.855835,360.982971 560.538940,360.960693 
z" data-index="30"></path>
<path fill="#598F7D" opacity="1.000000" stroke="none" d="
M635.947937,681.161133 
	C637.087158,681.378296 638.226440,681.595398 639.683960,681.978638 
	C640.030579,684.819946 640.058838,687.495117 639.900757,690.913208 
	C639.476013,694.715271 639.237671,697.774353 638.999268,700.833435 
	C633.975342,700.873535 628.951294,700.913696 623.463684,700.436279 
	C623.000366,694.000916 623.000610,688.083191 623.000916,682.165405 
	C626.845398,682.202026 630.689819,682.238708 634.987061,681.987427 
	C635.620789,681.530945 635.790161,681.351501 635.947937,681.161133 
z" data-index="31"></path>
<path fill="#598F7D" opacity="1.000000" stroke="none" d="
M622.610474,682.238159 
	C623.000610,688.083191 623.000366,694.000916 623.000244,700.376099 
	C622.555237,700.890686 622.109985,700.947998 621.328735,701.033569 
	C620.996094,696.299011 620.904541,691.533142 621.058716,686.775269 
	C621.107300,685.276184 621.814392,683.798401 622.610474,682.238159 
z" data-index="32"></path>
<path fill="#598F7D" opacity="1.000000" stroke="none" d="
M639.408875,700.838013 
	C639.237671,697.774353 639.476013,694.715271 639.908997,691.302124 
	C640.008606,694.246216 639.913513,697.544373 639.408875,700.838013 
z" data-index="33"></path>
<path fill="#DDAC9B" opacity="1.000000" stroke="none" d="
M301.028717,480.970215 
	C295.867279,480.972992 290.704834,480.914001 285.544830,481.001495 
	C282.420380,481.054443 280.991089,479.754456 281.000519,476.557037 
	C281.050415,459.574219 281.062286,442.590942 280.985809,425.608307 
	C280.970001,422.100464 282.594238,420.869598 285.879395,420.989014 
	C288.872253,421.097778 291.893707,420.773590 294.864716,421.048889 
	C299.787842,421.505035 301.206207,419.303345 301.075928,414.644836 
	C300.815308,405.328125 301.163055,395.994965 300.934174,386.676605 
	C300.825806,382.264954 302.546722,380.668182 306.812836,380.956604 
	C310.126740,381.180664 313.470184,380.931244 316.799133,380.981964 
	C319.753540,381.026947 321.026733,379.606934 320.985260,376.712372 
	C320.935181,373.216888 321.148590,369.711914 320.968811,366.225464 
	C320.768097,362.333923 322.413910,360.898010 326.262970,360.957916 
	C335.917603,361.108215 345.579529,360.851990 355.231812,361.063690 
	C359.540436,361.158234 361.353821,359.646240 361.044678,355.278748 
	C360.810211,351.966217 361.066498,348.621643 361.015045,345.292664 
	C360.970367,342.401428 362.238525,341.006012 365.195740,341.016937 
	C375.684937,341.055695 386.174622,341.070068 396.663574,341.004364 
	C399.939575,340.983826 401.082916,342.606720 401.000946,345.651611 
	C400.920319,348.646240 401.250671,351.671326 400.945618,354.636230 
	C400.409790,359.844452 402.752563,361.527069 407.629578,361.045715 
	C410.267578,360.785339 412.965302,361.168915 415.614166,360.970093 
	C419.832825,360.653412 421.228363,362.610107 421.041931,366.604034 
	C420.832581,371.089935 420.986938,375.592834 420.991364,380.544006 
	C420.999664,380.999695 421.028717,380.970215 421.028717,380.970215 
	C416.036835,380.983887 411.041687,381.113281 406.054169,380.972260 
	C402.475891,380.871094 400.792542,382.241516 400.982727,385.929169 
	C401.128265,388.750153 400.775391,391.607391 401.049042,394.408936 
	C401.529602,399.328522 399.766357,401.286987 394.606659,401.094269 
	C385.467590,400.752869 376.299622,401.212585 367.157318,400.917297 
	C362.271088,400.759460 360.562012,402.635101 360.950500,407.326416 
	C361.210449,410.465363 360.930542,413.645782 360.981354,416.806244 
	C361.028839,419.762054 359.598694,421.019745 356.709625,420.986328 
	C352.883453,420.942017 349.055328,421.060242 345.229156,421.015778 
	C342.298126,420.981659 340.980957,422.341736 341.014832,425.254944 
	C341.059326,429.081116 340.941071,432.909241 340.985535,436.735413 
	C341.019287,439.642029 339.718231,441.021912 336.780457,440.983307 
	C333.120697,440.935242 329.456512,441.095245 325.799652,440.985565 
	C322.453430,440.885193 320.860779,442.237762 320.990387,445.683838 
	C321.109131,448.840637 320.821960,452.018494 321.040741,455.164337 
	C321.335236,459.398529 319.789703,461.418488 315.350983,461.034088 
	C312.873749,460.819550 310.362335,460.988739 307.866425,461.002869 
	C301.117950,461.041107 301.030914,461.129974 301.002563,468.107727 
	C300.986359,472.101227 300.988953,476.094788 300.991364,480.544006 
	C300.999664,480.999695 301.028717,480.970215 301.028717,480.970215 
z" data-index="34"></path>
<path fill="#DDAC9B" opacity="1.000000" stroke="none" d="
M300.984924,481.014221 
	C305.945770,481.022736 310.924438,481.121582 315.895874,480.975067 
	C319.405029,480.871613 321.180695,482.121796 321.019409,485.851349 
	C320.861938,489.493439 320.929657,493.147888 320.981567,496.795685 
	C321.023254,499.725281 319.635529,501.079926 316.743134,500.970825 
	C316.577789,500.964569 316.411560,500.986420 316.245880,500.984344 
	C297.991913,500.756836 301.374756,503.387238 301.005646,486.887970 
	C300.968536,485.230377 301.009521,483.571014 301.021484,481.441345 
	C301.028717,480.970215 300.999664,480.999695 300.984924,481.014221 
z" data-index="35"></path>
<path fill="#DDAC9B" opacity="1.000000" stroke="none" d="
M420.984924,381.014221 
	C425.945770,381.022736 430.924438,381.121643 435.895874,380.975098 
	C439.405060,380.871643 441.180695,382.121796 441.019379,385.851349 
	C440.861908,389.493439 440.929688,393.147888 440.981598,396.795685 
	C441.023315,399.725281 439.635529,401.079865 436.743134,400.970795 
	C436.577789,400.964569 436.411560,400.986420 436.245880,400.984344 
	C417.991913,400.756836 421.374817,403.387238 421.005707,386.887970 
	C420.968597,385.230377 421.009521,383.571014 421.021484,381.441345 
	C421.028717,380.970215 420.999664,380.999695 420.984924,381.014221 
z" data-index="36"></path>
<path fill="#598F7D" opacity="1.000000" stroke="none" d="
M635.750854,681.211975 
	C635.790161,681.351501 635.620789,681.530945 635.300415,681.820923 
	C635.168396,681.644592 635.299316,681.418030 635.750854,681.211975 
z" data-index="37"></path>
</svg>